<svg width="137" height="137" viewBox="0 0 137 137" fill="none" xmlns="http://www.w3.org/2000/svg">
<path d="M44.7236 94.909C46.089 94.2553 47.3527 93.7179 48.5583 93.0788C49.6332 92.5123 50.1852 91.6262 50.1706 90.319C50.1271 84.8429 50.098 79.3813 50.1706 73.9053C50.1997 71.8427 49.822 70.0706 48.2969 68.5745C47.5416 67.8337 47.5997 67.7465 48.2969 66.9186C48.965 66.1342 49.7349 65.4079 49.9237 64.3331C50.0254 63.7666 50.1416 63.1856 50.1416 62.6191C50.1561 56.9251 50.098 51.2457 50.1997 45.5517C50.2288 43.678 49.2846 42.7048 47.8175 41.993C46.9751 41.5863 46.1035 41.2377 45.2175 40.9036C44.8398 40.7584 44.7382 40.555 44.9706 40.2645C45.9292 39.0299 46.8153 37.708 47.9192 36.6186C50.6645 33.9314 54.0199 33.394 57.5205 34.9773C58.2468 35.2968 58.944 35.7035 59.5976 36.1393C60.0334 36.4298 60.411 36.4443 60.8613 36.2119C64.7977 34.2365 68.981 33.6119 73.3241 33.8733C77.6962 34.1493 81.7779 35.3259 85.3221 38.0276C87.8059 39.9304 89.5054 42.3416 90.0138 45.4791C90.1009 46.002 90.0573 46.5395 90.1009 47.0769C90.1881 48.1373 90.1881 49.2267 90.464 50.2289C90.6529 50.8971 91.2048 51.5072 91.6842 52.0446C92.4685 52.9306 92.5557 53.0033 91.6696 53.7586C90.5221 54.7318 90.2462 56.0245 90.1445 57.3754C90.0573 58.4067 90.0719 59.4525 90.13 60.4984C90.2607 63.142 89.6651 65.5677 88.0674 67.7465C88.9825 69.0829 89.7087 70.4918 89.9411 72.0896C90.0428 72.7287 90.0864 73.3824 90.1154 74.036C90.2026 75.8226 90.2752 77.5947 90.3624 79.3813C90.4059 80.3981 91.016 81.1099 91.6842 81.7926C92.4685 82.5769 92.4976 82.6641 91.7132 83.3904C90.2026 84.7993 90.1009 86.6005 90.1154 88.4597C90.1445 91.0888 89.2149 93.3548 87.5444 95.3593C86.1064 97.1023 84.3053 98.366 82.3008 99.3537C78.6549 101.126 74.7912 101.75 70.7676 101.634C68.3564 101.562 66.0033 101.242 63.7228 100.458C62.7061 100.095 61.7328 99.6152 60.7161 99.2521C60.4546 99.1504 60.0624 99.1649 59.83 99.3102C58.116 100.385 56.3004 101.271 54.2668 101.387C51.2891 101.562 48.936 100.269 47.0767 98.0319C46.2343 97.0442 45.5225 95.9839 44.7236 94.909ZM89.9847 82.635C88.2417 80.7758 88.2852 78.4517 88.2998 76.1131C88.2998 75.3433 88.2998 74.5589 88.2998 73.7891C88.2998 71.6829 87.5009 69.8818 86.1645 68.313C85.8014 67.8918 85.7869 67.6448 86.15 67.2381C87.0361 66.2359 87.7914 65.1029 87.9802 63.7666C88.1981 62.2414 88.2562 60.7017 88.2852 59.162C88.3143 56.9251 88.2852 54.7027 89.9557 52.9306C89.6942 52.582 89.4618 52.306 89.2875 52.001C88.445 50.6356 88.2562 49.0959 88.3143 47.5417C88.4595 43.8087 86.5858 41.1651 83.6952 39.1315C80.6158 36.9527 77.1152 35.965 73.3822 35.7035C68.676 35.384 64.2022 36.1974 60.0624 38.6812C58.116 37.1416 56.0099 35.8924 53.3953 35.9505C50.8533 36.0086 48.4712 37.984 47.6578 39.9304C47.6723 39.945 47.6868 39.974 47.7013 39.9885C48.0064 40.1193 48.3259 40.25 48.631 40.3952C50.7371 41.4556 52.0444 42.9517 52.0008 45.5372C51.8992 51.144 51.9427 56.7653 51.9427 62.3867C51.9427 64.2459 51.5215 65.9163 50.2869 67.3398C50.0254 67.6303 50.0254 67.9208 50.3014 68.2259C51.4634 69.5331 51.9427 71.0874 51.9427 72.8159C51.9427 78.7713 51.9282 84.7267 51.9573 90.6821C51.9573 91.9894 51.4779 93.0497 50.4757 93.8341C49.5751 94.5313 48.5874 95.1123 47.5125 95.8241C48.2533 96.6084 48.965 97.5381 49.8656 98.2498C52.088 99.9929 54.5428 99.9929 57.0121 98.7872C58.1015 98.2498 59.1183 97.5526 60.1932 96.9135C61.9943 98.09 64.0279 98.8308 66.1486 99.3102C68.7777 99.8912 71.4503 100.109 74.152 99.7895C77.9577 99.3392 81.5019 98.2353 84.5377 95.795C86.1936 94.4587 87.5299 92.8318 88.0093 90.7111C88.2562 89.5927 88.2562 88.4161 88.3288 87.2686C88.4305 85.5692 88.7065 83.9714 89.9847 82.635Z" fill="white"/>
<path d="M54.4121 18.9848C54.7462 18.8686 55.0076 18.7669 55.3127 18.6653C55.5015 19.1446 55.6758 19.5513 55.8792 20.0452C54.659 20.5536 53.4825 21.0329 52.2333 21.5413C52.0154 21.1346 51.812 20.7424 51.6232 20.3647C51.6523 20.2776 51.6668 20.2195 51.6958 20.1904C52.6545 19.6094 52.6836 19.5949 52.2478 18.52C51.7249 17.2127 51.1729 15.9054 50.5193 14.6127C50.5193 15.2663 50.5193 15.9345 50.5193 16.5881C50.5193 17.8954 50.5193 19.2027 50.5338 20.51C50.5338 20.9748 50.5048 21.367 49.9528 21.5268C49.4008 21.7011 48.936 21.9625 48.3695 21.3815C47.0477 19.9871 45.6242 18.6943 44.2298 17.3434C44.4913 18.0261 44.7527 18.7379 45.0287 19.4496C45.3337 20.2049 45.6533 20.9603 45.9728 21.7156C46.1036 22.0206 46.2488 22.3838 46.6265 22.1513C47.4109 21.6865 47.5852 22.1949 47.7595 22.7759C47.803 22.9067 47.8611 23.0374 47.9483 23.2407C46.7282 23.7491 45.5371 24.243 44.2879 24.7659C44.0845 24.3011 43.9102 23.8944 43.7214 23.4441C44.0119 23.2698 44.2734 23.11 44.6075 22.9067C43.765 20.8586 42.9225 18.8105 42.08 16.7479C41.6007 16.8205 41.1359 17.2999 40.8163 16.4864C40.5694 15.8473 40.6566 15.5568 41.2666 15.3389C41.9638 15.092 42.6611 14.816 43.3438 14.511C43.7069 14.3512 43.9393 14.4238 44.2153 14.7144C45.5661 16.1233 46.9461 17.5032 48.326 18.8831C48.4422 18.9993 48.5729 19.072 48.7908 19.2463C48.8053 18.8977 48.8343 18.6653 48.8343 18.4328C48.8343 16.5881 48.8343 14.7579 48.8053 12.9132C48.8053 12.5065 48.8924 12.245 49.3137 12.0853C50.1271 11.7802 50.926 11.4316 51.7249 11.083C52.3059 10.8361 52.2914 11.359 52.4366 11.635C52.5819 11.911 52.8579 12.2886 52.364 12.4629C51.8121 12.6663 51.8702 12.9277 52.0735 13.3925C52.7562 14.9758 53.3808 16.6027 54.0344 18.2004C54.1506 18.5055 54.2959 18.7524 54.4121 18.9848Z" fill="white"/>
<path d="M17.2997 90.7402C19.4785 90.6676 21.4975 90.6094 23.4875 90.5078C24.1266 90.4787 24.5043 90.5949 24.7221 91.2776C24.9836 92.091 25.4194 92.8609 25.768 93.6162C24.635 94.4732 24.5333 94.4587 23.9668 93.4419C22.064 94.2989 20.1612 95.1559 18.2584 96.0129C17.5757 96.3179 18.1276 96.7392 18.1712 97.0878C18.1422 97.1313 18.1276 97.1604 18.1131 97.1604C16.9365 97.8576 16.9365 97.8576 16.3555 96.5939C16.065 95.9693 15.76 95.3302 15.4695 94.7056C15.2661 94.2844 15.2807 93.9648 15.789 93.805C16.2248 93.6743 16.6606 93.3838 16.893 94.0955C16.9365 94.2408 17.3142 94.4587 17.4304 94.4006C18.9701 93.7615 20.4953 93.0642 21.9769 92.4106C20.045 92.4106 18.1131 92.3815 16.1958 92.4251C15.6583 92.4396 15.3097 92.3089 15.1354 91.8005C14.9611 91.3067 14.7432 90.9 15.2661 90.377C16.646 89.0117 17.9388 87.5591 19.188 86.0194C17.5902 86.7312 15.9779 87.4429 14.3075 88.1982C14.4237 88.6049 14.5399 88.9971 14.6415 89.3457C14.598 89.4038 14.5834 89.4329 14.5689 89.4474C13.4069 90.0284 13.4214 90.0284 12.8694 88.8519C12.6225 88.2999 12.3611 87.7625 12.0851 87.225C11.751 86.6004 11.8381 86.1792 12.5644 85.9759C12.6951 85.9323 12.8259 85.8597 13.0292 85.758C13.2035 86.034 13.3778 86.3099 13.5957 86.644C15.0337 86.0049 16.4717 85.3658 17.9097 84.7267C18.2148 84.5959 18.5198 84.4362 18.8394 84.3054C19.7399 83.9278 19.7399 83.9133 19.3913 83.0563C19.4059 83.0127 19.4204 82.9546 19.4494 82.9255C20.6696 82.2283 20.6841 82.2283 21.2361 83.5065C21.4394 83.9714 21.5847 84.4797 21.8752 84.8865C22.3255 85.4965 21.9478 85.8597 21.5847 86.2373C20.321 87.5591 19.0573 88.8809 17.7935 90.2027C17.6483 90.3335 17.5321 90.4787 17.2997 90.7402Z" fill="white"/>
<path d="M19.8707 100.022C20.1177 100.283 20.3065 100.501 20.5534 100.763C22.2819 99.3246 23.9814 97.9011 25.7099 96.4631C25.5066 96.1726 25.3468 95.9402 25.1289 95.6352C25.463 95.3302 25.7826 95.0396 26.2038 94.6475C26.9591 95.548 27.6999 96.3905 28.3681 97.2766C28.4698 97.4073 28.3245 97.7704 28.2083 97.9883C27.3077 99.7459 26.3781 101.489 25.4485 103.232C25.3904 103.334 25.3613 103.435 25.2596 103.697C26.3926 103.334 27.4094 103.029 28.3971 102.709C29.472 102.36 30.5324 101.983 31.6218 101.678C31.8106 101.62 32.1301 101.765 32.2754 101.925C32.7838 102.477 33.205 103.101 33.7279 103.624C34.2509 104.162 34.1056 104.525 33.5682 104.888C33.4229 104.975 33.2922 105.062 33.1033 105.178C32.8855 104.975 32.6676 104.757 32.3916 104.51C31.0553 105.629 29.7335 106.733 28.3971 107.837C28.1938 108.011 27.9759 108.171 27.7725 108.33C27.4385 108.606 27.1189 108.868 27.5982 109.318C27.6854 109.391 27.6128 109.754 27.4966 109.899C27.3077 110.146 27.0463 110.32 26.7267 110.596C25.8697 109.58 25.0272 108.577 24.1848 107.575C25.0127 106.471 25.0853 106.457 26.1457 107.386C27.4675 106.282 28.8038 105.164 30.1402 104.045C30.1111 103.987 30.0821 103.929 30.053 103.871C29.196 104.147 28.339 104.409 27.482 104.685C26.4943 105.004 25.5066 105.309 24.5334 105.643C24.0976 105.788 23.7635 105.759 23.473 105.338C23.1825 104.902 22.7613 104.612 23.1389 103.958C24.054 102.346 24.882 100.675 25.739 99.0341C25.7826 98.9615 25.7971 98.8598 25.739 98.6855C24.9256 99.3537 24.0976 100.022 23.2842 100.69C22.9065 100.995 22.5725 101.344 22.1803 101.605C21.6864 101.939 21.5847 102.244 22.0931 102.651C22.1948 102.738 22.2529 102.883 22.3255 103C22.2965 103.058 22.2965 103.101 22.2674 103.145C21.3378 104.147 21.3523 104.147 20.4808 103.087C20.0886 102.607 19.7255 102.084 19.2752 101.663C18.7232 101.126 18.8104 100.734 19.4204 100.356C19.5512 100.269 19.6819 100.167 19.8707 100.022Z" fill="white"/>
<path d="M109.245 35.0059C110.829 34.5266 112.223 34.1198 113.632 33.6986C114.228 33.5243 114.823 33.2919 115.433 33.1612C115.68 33.1031 116.058 33.1466 116.203 33.2919C116.886 34.0617 117.51 34.8897 118.208 35.7467C117.83 36.0662 117.51 36.3422 117.191 36.6182C116.276 36.0662 116.261 36.0517 115.375 36.7489C113.966 37.8674 112.572 39.0149 111.134 40.1624C111.323 40.4384 111.482 40.6708 111.7 40.9758C111.352 41.2809 110.988 41.5859 110.582 41.92C109.812 40.9758 109.071 40.0752 108.345 39.1601C107.967 38.6808 108.432 38.492 108.693 38.245C108.969 37.9836 109.289 37.7948 109.521 38.2305C109.87 38.8987 110.175 38.6953 110.611 38.3177C111.758 37.3445 112.949 36.4149 114.068 35.3254C113.414 35.4852 112.761 35.6305 112.121 35.8338C110.872 36.2115 109.623 36.5746 108.388 37.0104C107.604 37.2864 107.444 36.5892 107.125 36.2115C106.979 36.0372 106.965 35.5724 107.081 35.3545C108.011 33.5969 108.984 31.8539 109.826 29.9946C109.173 30.5175 108.519 31.0405 107.865 31.5634C107.27 32.0427 106.645 32.493 106.064 33.0159C105.905 33.1612 105.774 33.5969 105.861 33.6841C106.457 34.2796 106.166 34.6428 105.6 34.9768C105.483 35.0495 105.382 35.1511 105.193 35.2964C104.365 34.2796 103.551 33.2774 102.709 32.217C103.087 31.8975 103.435 31.607 103.886 31.2293C104.074 31.5343 104.234 31.8103 104.408 32.1008C105.614 31.1421 106.689 30.2851 107.749 29.4281C108.171 29.0941 108.548 28.7164 108.984 28.4259C109.594 28.0337 109.914 27.6415 109.042 26.9153C109.274 26.7845 109.463 26.7119 109.594 26.5957C110.291 26.0002 110.277 26.0002 110.843 26.7119C111.279 27.2639 111.7 27.8158 112.165 28.3387C112.499 28.6874 112.47 28.9779 112.238 29.3555C111.279 31.0259 110.349 32.7109 109.42 34.3958C109.405 34.512 109.362 34.6718 109.245 35.0059Z" fill="white"/>
<path d="M92.1054 20.1905C90.8707 19.6385 89.7087 19.1011 88.5467 18.6217C88.4305 18.5782 88.1254 18.7525 88.0383 18.9123C87.8059 19.3044 87.6897 19.7547 87.4718 20.1614C87.1813 20.6844 87.1668 21.062 87.8349 21.2363C87.9802 21.2799 88.1109 21.4251 88.2271 21.4978C88.2271 21.5849 88.2562 21.6285 88.2271 21.6721C87.7187 22.8196 87.7187 22.8196 86.5857 22.3402C85.6852 21.9626 84.7846 21.5559 83.8259 21.1346C84.0293 20.6553 84.2036 20.2486 84.3924 19.7983C84.7556 19.9145 85.0315 20.0162 85.3511 20.1179C86.2517 18.0698 87.1377 16.0508 88.0092 14.0463C87.1232 13.3781 87.1232 13.3781 87.7768 12.1289C88.9534 12.6663 90.159 13.2038 91.3355 13.7703C91.4372 13.8139 91.5099 14.1044 91.4663 14.2351C91.3646 14.5546 91.1903 14.8452 91.0305 15.1938C90.6383 15.0485 90.2607 14.9178 89.854 14.7725C89.5053 15.5569 89.1858 16.2686 88.8081 17.0966C90.0864 17.6631 91.3501 18.215 92.6864 18.7961C93.035 17.9972 93.3546 17.2564 93.6887 16.4865C93.282 16.2686 92.9624 16.0798 92.5557 15.8619C92.759 15.4407 92.9624 15.0195 93.1948 14.5401C94.3278 15.034 95.4027 15.4988 96.4775 15.9636C96.8261 16.1089 97.1893 16.2396 96.8697 16.7334C96.6373 17.0966 96.6083 17.7793 95.882 17.358C95.8094 17.3145 95.7077 17.2854 95.5189 17.2128C94.6183 19.2609 93.7468 21.2654 92.8607 23.2699C93.7758 24.0833 93.7758 24.0833 93.0495 25.1582C92.2071 24.795 91.3646 24.4174 90.5076 24.0542C90.3333 23.9816 90.1445 23.909 89.9847 23.8073C89.7523 23.6621 89.3601 23.4732 89.3601 23.3425C89.3892 22.9794 89.5925 22.6308 89.7668 22.2821C89.7959 22.224 90.0283 22.224 90.159 22.2531C90.4059 22.3257 90.6529 22.4419 90.9869 22.5727C91.3501 21.8319 91.6987 21.0765 92.1054 20.1905Z" fill="white"/>
<path d="M69.0972 10.5021C69.0537 10.4149 69.0101 10.3859 69.0101 10.3423C68.8358 9.03503 68.8503 9.03503 70.1285 9.02051C71.0436 9.02051 71.9587 9.02051 72.9319 9.02051C72.9319 9.5289 72.9319 9.96466 72.9319 10.4585C72.6414 10.4876 72.3654 10.5311 71.9733 10.5747C71.9733 10.8362 71.9733 11.0976 71.9733 11.3446C72.0168 13.596 72.0459 15.8474 72.133 18.0989C72.1476 18.6944 71.9587 18.8397 71.3632 18.9123C70.4045 19.014 69.8816 18.6073 69.4023 17.8374C68.2257 15.9636 66.962 14.1625 65.6257 12.158C65.6257 13.9882 65.6257 15.6441 65.6257 17.3726C65.9888 17.4016 66.3665 17.4162 66.7732 17.4452C66.8022 17.5614 66.8603 17.6631 66.8748 17.7793C66.962 18.9268 66.9475 18.9268 65.7854 18.9559C65.0301 18.9704 64.2893 18.9994 63.534 19.014C63.1273 19.0285 62.7206 19.043 62.7642 18.4475C62.7932 17.9827 62.5753 17.3435 63.4323 17.4307C63.5195 17.4452 63.6066 17.3871 63.7374 17.3581C63.7374 15.1647 63.7374 13.0005 63.7374 10.8217C63.6212 10.7781 63.534 10.7055 63.4614 10.72C62.5899 10.8507 62.7206 10.2406 62.6915 9.7032C62.648 9.02051 63.1418 9.13671 63.5195 9.12219C65.7128 9.04956 65.6838 9.06408 66.8894 10.9088C67.9497 12.5356 69.0682 14.1334 70.2012 15.8039C70.2012 14.0172 70.2012 12.3323 70.2012 10.6038C69.7654 10.5747 69.4168 10.5311 69.0972 10.5021Z" fill="white"/>
<path d="M98.2932 109.245C97.349 110.117 97.349 110.117 98.1043 111.09C98.9759 112.208 98.9759 112.208 100.094 111.279C100.443 110.988 100.821 110.741 101.184 110.465C101.532 110.204 101.866 109.942 102.273 109.623C101.765 108.94 101.271 108.272 100.777 107.604C100.37 107.793 99.9491 108.141 99.5859 108.083C99.2809 108.04 99.063 107.502 98.7435 107.095C99.891 106.238 100.98 105.396 102.142 104.524C102.447 104.902 102.723 105.251 103.028 105.628C102.782 105.904 102.549 106.137 102.317 106.398C103.639 108.156 104.96 109.913 106.311 111.714C106.602 111.555 106.849 111.395 107.183 111.206C107.386 111.438 107.648 111.671 107.793 111.961C107.88 112.136 107.851 112.499 107.72 112.601C106.834 113.327 105.904 114.039 104.975 114.707C104.873 114.779 104.568 114.707 104.452 114.591C104.22 114.358 104.045 114.068 103.813 113.748C104.132 113.458 104.423 113.182 104.771 112.877C104.263 112.194 103.769 111.526 103.217 110.77C102.084 111.627 100.98 112.455 99.8183 113.327C100.37 114.053 100.879 114.721 101.416 115.447C101.765 115.201 102.113 114.968 102.491 114.721C102.767 115.113 103.028 115.477 103.333 115.898C102.215 116.755 101.14 117.568 100.065 118.396C98.9759 117.554 98.9468 117.394 99.8329 116.61C98.4965 114.837 97.1602 113.065 95.8239 111.293C94.8942 111.816 94.8942 111.816 94.0663 110.625C95.1702 109.797 96.2741 108.955 97.4362 108.083C97.7412 108.504 98.0172 108.882 98.2932 109.245Z" fill="white"/>
<path d="M49.183 115.288C49.1684 115.215 49.1684 115.186 49.1684 115.172C49.6042 113.908 49.6187 113.894 50.8534 114.358C51.6813 114.678 52.4947 115.056 53.3808 115.433C53.192 115.913 53.0176 116.334 52.8433 116.77C51.8847 116.523 51.8701 116.508 51.478 117.438C50.6064 119.442 49.7349 121.461 48.907 123.495C48.7036 124.003 48.4857 123.974 48.0354 123.858C47.1058 123.611 46.6555 123.088 46.5684 122.1C46.4667 120.967 46.1617 119.863 45.9583 118.745C45.755 117.656 45.5807 116.566 45.4064 115.477C45.3483 115.462 45.2756 115.448 45.2175 115.419C44.5639 116.987 43.8957 118.556 43.2421 120.11C44.4913 120.851 44.5203 120.996 43.7214 122.013C42.6465 121.577 41.5571 121.127 40.4677 120.677C40.0029 120.488 40.2063 120.169 40.337 119.893C40.4677 119.587 40.4677 119.108 41.0197 119.253C41.2085 119.297 41.3683 119.399 41.6007 119.515C42.2253 118.019 42.8499 116.537 43.4745 115.056C43.6197 114.721 43.7359 114.387 43.9102 114.053C44.1426 113.589 44.4041 113.182 43.6343 112.935C43.5471 112.906 43.5762 112.267 43.6778 111.962C43.7359 111.787 44.1281 111.569 44.2879 111.613C44.9706 111.831 45.6969 112.049 46.2633 112.456C46.6265 112.717 46.8298 113.313 46.917 113.792C47.3528 116.014 47.7304 118.266 48.2678 120.532C48.8924 119.05 49.5316 117.568 50.1271 116.058C50.1707 115.942 50.0254 115.666 49.8802 115.564C49.6768 115.448 49.4008 115.39 49.183 115.288Z" fill="white"/>
<path d="M82.5331 11.7218C82.6348 11.3296 82.7075 11.0682 82.7801 10.7341C83.2449 10.8503 83.6661 10.952 84.189 11.0682C84.1164 11.5475 84.0438 12.0123 83.9712 12.4771C83.8985 12.8838 83.7969 13.276 83.7388 13.6827C83.579 14.8738 83.5209 14.9174 82.3879 14.5542C82.2136 14.4961 81.9957 14.2492 81.9957 14.0894C81.9957 12.695 80.9499 11.7654 79.3811 11.6492C78.1465 11.5475 76.8683 12.3609 76.4615 13.581C76.0113 14.9174 75.8805 16.2247 76.7811 17.4448C77.6817 18.6504 80.1655 18.9264 81.2259 17.8951C81.4728 17.6482 81.589 17.2705 81.8214 16.8783C80.9935 16.704 80.3253 16.5152 79.6426 16.428C79.0761 16.3554 79.1342 16.0213 79.2068 15.6437C79.2795 15.2805 79.2359 14.8157 79.8605 14.9464C81.037 15.1934 82.2281 15.4258 83.5354 15.6872C83.332 16.8493 83.1287 17.9822 82.9108 19.1007C82.8818 19.2605 82.8237 19.4348 82.7946 19.5946C82.5622 20.8147 82.475 20.8583 81.2549 20.3644C81.2549 20.1175 81.2549 19.856 81.2549 19.551C81.1532 19.5655 81.0516 19.5655 80.9789 19.5946C78.6258 20.713 76.2146 20.0594 74.8202 17.8515C74.0794 16.6895 74.0358 15.3677 74.2827 14.0604C74.6023 12.4481 75.314 11.0536 76.8828 10.2838C78.6839 9.39774 80.9354 9.8916 82.2717 11.4022C82.3443 11.5039 82.4024 11.5765 82.5331 11.7218Z" fill="white"/>
<path d="M26.3781 41.9494C25.0854 41.2086 25.0854 41.1795 25.6809 40.2354C24.8675 39.5963 24.0541 38.9571 23.2261 38.318C22.4272 37.708 21.6138 37.0979 20.8149 36.4878C20.5099 36.2554 20.3065 36.2118 20.0305 36.5459C19.5076 37.1705 19.2026 36.4733 18.8395 36.2699C18.3747 36.0085 18.7378 35.747 18.9121 35.5146C19.8708 34.28 20.7859 33.0163 21.8026 31.8397C23.168 30.2564 25.2742 30.4743 26.1748 32.2464C26.3636 32.6096 26.3636 33.0744 26.4653 33.5101C26.5234 33.5101 26.596 33.5392 26.6541 33.5101C27.9178 32.8565 28.9782 33.2777 29.8061 34.2509C30.605 35.2096 30.4598 36.3426 29.8207 37.3012C28.7167 38.87 27.5256 40.3952 26.3781 41.9494ZM27.0173 34.8755C26.9446 34.89 26.6977 34.8755 26.5815 34.9772C26.0005 35.5727 25.434 36.1828 24.882 36.8074C24.8239 36.88 24.882 37.1705 24.9692 37.2431C25.5938 37.7225 26.2329 38.1728 26.872 38.6231C27.3368 38.0275 27.8162 37.432 28.281 36.8219C28.3391 36.7493 28.3536 36.6476 28.3826 36.5459C28.6441 35.6744 28.0631 34.89 27.0173 34.8755ZM23.5747 36.1537C23.9669 35.6163 24.3591 35.1515 24.6787 34.6286C25.0709 33.9749 24.9547 33.3213 24.4608 32.9436C23.8798 32.5079 23.2697 32.5224 22.7177 33.0744C22.3546 33.423 22.0351 33.8297 21.7736 34.2509C21.6864 34.3962 21.7591 34.7593 21.8898 34.89C22.3837 35.2967 22.9356 35.6744 23.5747 36.1537Z" fill="white"/>
<path d="M123.32 65.0592C124.047 64.6525 124.802 64.2458 125.543 63.7955C125.688 63.7084 125.833 63.4324 125.819 63.2726C125.732 62.3866 126.356 62.619 126.821 62.5754C127.417 62.5173 127.344 62.924 127.417 63.3162C127.663 64.5799 127.082 65.2916 125.979 65.7274C125.557 65.8872 125.165 66.1196 124.758 66.352C123.582 67.0347 123.582 67.0347 123.713 68.4872C124.41 68.4872 125.122 68.4872 125.833 68.4872C125.935 68.095 125.906 67.5431 126.167 67.3252C126.4 67.1218 126.937 67.2816 127.46 67.2816C127.46 68.5889 127.475 69.8526 127.431 71.1308C127.431 71.247 127.097 71.4649 126.937 71.4504C126.618 71.4359 126.284 71.3197 126.008 71.1599C125.906 71.1018 125.949 70.7968 125.92 70.5934C123.684 70.5934 121.476 70.5934 119.311 70.5934C119.021 70.942 119.369 71.523 118.672 71.5521C117.685 71.5957 117.655 71.6102 117.641 70.6225C117.641 69.2425 117.612 67.8626 117.641 66.4827C117.67 64.9576 118.425 63.9263 119.675 63.5776C121.156 63.1709 122.231 63.5776 123.146 64.943C123.19 64.9721 123.233 64.9866 123.32 65.0592ZM120.619 68.5599C122.318 68.5453 122.318 68.5453 122.187 66.9621C122.115 65.9598 121.563 65.4078 120.648 65.4078C119.733 65.4078 119.224 65.9017 119.123 66.8894C118.948 68.5599 118.948 68.5599 120.619 68.5599Z" fill="white"/>
<path d="M36.2844 30.4453C36.0519 30.1548 35.8776 29.8934 35.6598 29.661C35.3838 29.3559 35.3838 29.109 35.7905 28.9347C36.1246 28.7749 36.2117 28.5861 35.9793 28.252C34.7882 26.5671 33.6117 24.8676 32.3916 23.1246C31.796 23.5603 31.244 23.6329 30.9535 22.8195C30.8809 22.6162 30.9535 22.224 31.0988 22.1223C32.4497 21.1782 33.8005 20.1904 35.2385 19.377C36.2698 18.7815 37.4173 18.7524 38.4196 19.5804C39.4509 20.4374 39.8285 21.6139 39.4073 22.8776C39.233 23.3715 39.3637 23.5748 39.814 23.7491C40.2353 23.9089 40.642 24.1559 41.0487 24.3592C41.499 24.5771 41.9347 24.8531 42.4141 24.4028C42.5012 24.3302 42.8353 24.4028 42.9515 24.519C43.1839 24.7514 43.3292 25.0564 43.5616 25.405C42.966 25.8263 42.4141 26.2475 41.8185 26.5961C41.6733 26.6833 41.3537 26.5961 41.1649 26.509C40.395 26.1168 39.6252 25.7101 38.8699 25.2888C37.824 24.7223 37.5481 24.7805 36.6184 25.7972C36.9961 26.3347 37.3883 26.9012 37.795 27.4822C38.1727 27.2643 38.4777 27.09 38.8553 26.8721C39.1313 27.2352 39.3928 27.5984 39.7414 28.0487C38.5794 28.8621 37.4464 29.6319 36.2844 30.4453ZM36.0665 20.6407C35.529 20.9603 34.8318 21.3379 34.1782 21.7592C34.091 21.8173 34.1201 22.1659 34.2072 22.3111C34.5994 22.9357 35.0352 23.5458 35.4855 24.1268C35.5871 24.2575 35.9357 24.3302 36.0519 24.2575C36.5313 23.938 37.0106 23.5894 37.4028 23.1827C37.7805 22.7759 37.9257 22.2821 37.6352 21.7156C37.3302 21.1491 36.9235 20.7714 36.0665 20.6407Z" fill="white"/>
<path d="M109.507 98.3511C109.071 98.0751 108.679 97.8137 108.214 97.5086C109.231 95.9254 110.131 94.3276 111.235 92.8896C112.848 90.7834 115.332 91.7566 116.203 93.4996C116.406 93.9063 116.406 94.4292 116.537 95.1119C117.38 95.1119 118.309 95.1119 119.239 95.1119C119.326 95.1119 119.413 95.0538 119.486 94.9957C120.285 94.3566 120.285 94.3566 121.214 95.0974C120.866 95.6784 120.532 96.2885 120.125 96.855C120.023 97.0002 119.689 97.0293 119.471 97.0293C118.643 97.0148 117.815 97.0438 117.016 96.8986C115.913 96.6952 115.375 97.2326 115.012 98.2349C115.608 98.598 116.203 98.9612 116.842 99.3533C117.075 99.0047 117.292 98.6997 117.51 98.3656C117.583 98.3802 117.67 98.3656 117.714 98.4092C118.905 99.179 119.006 98.7723 118.106 100.239C117.714 100.879 117.336 101.518 116.958 102.157C116.784 102.433 116.61 102.752 116.232 102.462C115.913 102.215 115.201 102.157 115.564 101.503C115.884 100.937 115.506 100.791 115.157 100.573C113.719 99.702 112.267 98.845 110.843 97.9589C110.059 97.436 110.044 97.4069 109.507 98.3511ZM110.974 95.7656C111.962 96.3611 112.819 96.884 113.792 97.4796C114.126 96.7533 114.475 96.1287 114.721 95.4606C114.939 94.8795 114.605 94.1533 114.024 93.8773C113.429 93.5722 112.761 93.4996 112.267 94.0225C111.816 94.5019 111.453 95.1119 110.974 95.7656Z" fill="white"/>
<path d="M14.8159 82.9397C11.998 82.8962 9.99345 80.9207 9.9644 77.7397C9.93535 74.9072 12.0851 72.9027 15.4114 72.8882C18.4036 72.8882 20.2193 75.1251 20.2774 78.0737C20.3065 80.8917 17.9534 82.9543 14.8159 82.9397ZM15.1935 74.8491C15.1354 74.8491 14.9321 74.8346 14.7433 74.8782C13.5522 75.1106 12.4773 75.5609 12.027 76.7665C11.5622 78.0156 11.722 79.2358 12.7387 80.1654C13.6829 81.0079 14.7868 81.1677 16.0505 80.79C17.7355 80.2816 18.5344 79.1631 18.3165 77.3039C18.1422 75.8368 16.9221 74.8346 15.1935 74.8491Z" fill="white"/>
<path d="M34.8609 106.805C34.585 106.558 34.3671 106.384 34.0766 106.137C34.3526 105.759 34.614 105.382 34.9336 104.946C36.0375 105.73 37.1124 106.413 38.1001 107.212C38.6085 107.618 37.9113 107.894 37.766 108.229C37.7224 108.345 37.2722 108.446 37.156 108.359C36.6185 107.924 36.3425 108.054 35.9794 108.635C35.3112 109.681 34.4978 110.654 33.7861 111.671C32.7983 113.08 33.5537 114.765 35.2531 115.026C35.9213 115.128 36.4442 114.809 36.8219 114.315C37.7951 113.036 38.7247 111.715 39.6834 110.378C39.5526 110.233 39.48 110.131 39.3783 110.03C38.7973 109.521 38.8118 108.984 39.48 108.577C39.6253 108.49 39.9448 108.563 40.1046 108.679C41.0633 109.332 41.9929 110.001 43.0097 110.727C42.7337 111.134 42.4722 111.511 42.1672 111.947C41.4119 111.221 41.0487 111.627 40.642 112.267C39.9884 113.298 39.2621 114.286 38.5068 115.259C37.5627 116.479 36.3425 117.292 34.7447 116.784C33.0743 116.247 31.6944 115.259 31.3168 113.4C31.0698 112.194 31.6944 111.206 32.3481 110.262C33.1905 109.144 34.0039 108.011 34.8609 106.805Z" fill="white"/>
<path d="M124.962 78.9161C125.136 77.7977 125.296 76.7519 125.47 75.677C125.252 75.6334 125.093 75.5753 124.933 75.5608C124.032 75.4446 123.771 74.82 124.308 74.0647C124.381 73.963 124.541 73.8758 124.642 73.8904C125.47 74.0356 126.298 74.1954 127.184 74.3697C126.792 76.9407 126.414 79.4681 126.022 81.9665C124.628 82.0246 124.628 82.0246 124.584 80.848C122.391 80.5139 120.183 80.1653 117.946 79.8167C117.873 80.1508 117.801 80.4413 117.714 80.7754C117.467 80.7609 117.249 80.7463 117.045 80.7318C116.479 80.6882 116.261 80.4123 116.363 79.8167C116.653 78.2044 116.9 76.5776 117.162 74.9652C117.191 74.7474 117.249 74.544 117.292 74.3261C117.539 72.9172 117.539 72.9172 119.006 73.0334C119.123 73.0479 119.253 73.0479 119.37 73.0624C120.401 73.1641 120.633 73.5418 120.227 74.5004C120.168 74.6312 119.907 74.7619 119.747 74.7474C119.442 74.7474 119.152 74.6457 118.774 74.5731C118.629 75.6044 118.469 76.5485 118.367 77.5072C118.353 77.6379 118.498 77.9139 118.6 77.9284C119.326 78.0737 120.067 78.1608 120.866 78.277C121.054 77.1586 121.214 76.0982 121.389 75.0669C121.49 75.0233 121.534 74.9943 121.577 74.9943C122.783 75.1396 122.798 75.1541 122.681 76.3452C122.609 77.0569 122.478 77.7686 122.362 78.524C123.219 78.6547 124.047 78.7854 124.962 78.9161Z" fill="white"/>
<path d="M99.644 28.1938C99.9781 28.4117 100.24 28.5715 100.487 28.7458C101.198 27.9033 101.155 27.3077 100.385 26.7413C99.8764 26.3636 99.3535 26.015 98.9033 25.5792C98.453 25.1289 98.0753 25.1144 97.625 25.5356C97.4507 25.6954 97.2474 25.8262 96.9859 26.0005C97.2328 26.2619 97.4652 26.5088 97.7557 26.8139C97.4798 27.177 97.2038 27.5256 96.9133 27.9033C95.9546 27.177 95.054 26.5088 94.168 25.7971C94.0518 25.6954 94.0227 25.3178 94.1099 25.158C94.2551 24.8675 94.5311 24.6496 94.778 24.3736C95.1993 24.7949 95.5479 24.8384 96.0853 24.4898C98.3368 23.0228 100.646 21.6283 102.898 20.2339C102.97 20.2484 102.985 20.2484 103.014 20.2629C104.83 21.425 104.83 21.425 104.19 23.473C103.58 25.4775 102.97 27.482 102.389 29.5011C102.317 29.719 102.317 30.1111 102.447 30.2273C103.188 30.8374 102.433 31.1715 102.201 31.5346C101.895 31.9849 101.59 31.5201 101.358 31.3603C100.69 30.8955 100.065 30.3581 99.3971 29.8787C98.6273 29.3122 98.6273 29.3122 99.2373 28.5569C99.3681 28.4117 99.4988 28.3245 99.644 28.1938ZM102.636 22.5144C102.578 22.4998 102.52 22.4708 102.462 22.4563C101.518 23.0518 100.574 23.6473 99.5278 24.3155C100.225 24.8675 100.835 25.3468 101.518 25.8843C101.91 24.7077 102.273 23.6038 102.636 22.5144Z" fill="white"/>
<path d="M112.731 105.091C112.644 105.018 112.63 104.989 112.615 104.989C111.148 104.408 111.148 104.408 109.87 105.904C109.783 106.006 109.71 106.151 109.623 106.253C108.824 107.197 108.824 107.43 109.754 108.432C110.001 108.199 110.262 107.967 110.538 107.706C110.872 108.011 111.192 108.301 111.569 108.635C110.712 109.608 109.899 110.538 109.056 111.526C108.679 111.206 108.33 110.916 107.923 110.567C108.548 110.044 108.316 109.579 107.996 108.998C106.82 106.921 105.73 104.801 104.597 102.709C104.336 102.23 104.379 101.895 104.771 101.503C105.875 100.399 105.861 100.385 107.313 100.937C109.405 101.736 111.482 102.564 113.588 103.304C113.893 103.421 114.329 103.188 114.692 102.941C114.736 102.941 114.794 102.941 114.823 102.97C115.782 103.871 115.796 103.871 114.925 104.873C114.489 105.382 113.981 105.846 113.588 106.398C113.109 107.081 112.775 106.645 112.368 106.355C111.845 105.977 112.179 105.73 112.441 105.44C112.528 105.323 112.615 105.222 112.731 105.091ZM108.156 105.832C108.737 105.164 109.231 104.597 109.826 103.914C108.679 103.435 107.633 103.014 106.602 102.593C106.558 102.636 106.515 102.68 106.471 102.709C107.008 103.697 107.546 104.699 108.156 105.832Z" fill="white"/>
<path d="M11.0393 71.3049C10.2259 70.8546 9.80469 70.0993 9.51418 69.3295C8.80244 67.4121 8.93317 65.5529 10.284 63.9406C11.5913 62.3863 13.3634 62.0813 15.2808 62.3428C16.3992 62.5026 17.4305 62.8657 18.2294 63.7372C19.7691 65.4221 19.7981 67.6881 18.3311 69.4312C18.2875 69.4893 18.273 69.5619 18.2294 69.6781C18.7087 69.7217 19.1881 69.6926 19.159 70.4334C19.13 71.1161 18.9266 71.3776 18.2149 71.3195C17.2707 71.2468 16.3266 71.2468 15.3824 71.2468C14.8014 71.2468 14.7869 70.8692 14.8159 70.4625C14.845 70.0848 14.6562 69.5764 15.3389 69.5764C16.7769 69.5619 17.4886 68.3127 17.5322 67.2523C17.5903 65.8289 16.7478 64.5797 15.4696 64.4344C14.5835 64.3327 13.5813 64.2746 12.7679 64.5942C10.8505 65.335 10.2695 67.8479 11.6058 69.5183C12.1287 70.1865 12.0416 70.5206 11.4461 70.9418C11.3299 71.0144 11.1991 71.1597 11.0393 71.3049Z" fill="white"/>
<path d="M93.7177 115.549C92.4249 113.53 90.1154 113.458 89.0114 115.375C88.7355 115.855 88.6628 116.537 88.7064 117.104C88.8226 118.702 90.0718 120.11 91.4517 120.357C92.6718 120.575 94.4875 119.936 95.1266 118.28C95.1993 118.106 95.2864 117.932 95.4026 117.685C95.8819 117.874 96.3613 118.077 96.9132 118.295C96.6227 119.588 95.911 120.561 94.8506 121.287C92.5556 122.87 89.8249 122.638 88.2125 120.677C87.1086 119.326 86.455 117.786 86.6874 116.014C87.0069 113.516 89.7522 111.715 92.2361 112.543C92.1489 112.238 92.0763 111.991 91.9746 111.671C92.3813 111.468 92.7735 111.265 93.2529 111.018C93.8339 112.223 94.4004 113.385 94.9378 114.562C94.9959 114.678 94.8506 114.968 94.7054 115.056C94.4149 115.259 94.0663 115.39 93.7177 115.549Z" fill="white"/>
<path d="M72.438 119.035C73.2078 119.907 73.9051 120.691 74.6894 121.577C75.2123 120.502 75.6771 119.573 76.1565 118.57C75.9095 118.556 75.7643 118.512 75.6336 118.541C75.0816 118.658 74.9799 118.323 74.9509 117.888C74.9218 117.452 74.8637 117.089 75.5028 117.045C76.5777 116.958 77.6526 116.769 78.7856 116.624C78.8437 117.089 78.9163 117.437 78.9163 117.786C78.9163 117.917 78.771 118.149 78.6694 118.149C78.0448 118.164 77.9141 118.658 77.7107 119.093C77.1878 120.154 76.6649 121.2 76.1274 122.26C75.8514 122.812 75.6917 123.349 75.9095 123.974C76.0403 124.366 76.0258 124.816 76.0693 125.238C77.3621 125.296 77.4347 125.368 77.3766 126.647C76.0403 126.85 74.6894 127.053 73.3386 127.257C72.8447 126.007 72.9028 125.877 73.9922 125.543C74.3553 123.771 73.3821 122.579 72.2637 121.446C71.7698 120.953 71.305 120.43 70.8692 119.892C70.5206 119.442 70.172 119.079 69.5474 119.34C69.4893 119.195 69.4312 119.122 69.4167 119.035C69.1843 117.902 69.2279 117.83 70.3899 117.67C71.2033 117.554 72.0313 117.51 72.8447 117.394C73.3095 117.321 73.3967 117.554 73.4402 117.902C73.4693 118.251 73.7888 118.687 73.1788 118.861C72.9754 118.919 72.7866 118.948 72.438 119.035Z" fill="white"/>
<path d="M64.3474 125.702C64.7832 125.775 65.1318 125.833 65.524 125.891C65.524 126.356 65.524 126.792 65.524 127.358C64.0134 127.228 62.5608 127.082 61.1083 126.952C60.8178 125.731 60.934 125.586 62.4156 125.455C62.5899 123.262 62.7642 121.054 62.9385 118.759C62.3429 118.716 61.7619 118.687 61.0938 118.643C61.0502 118.934 61.0066 119.195 60.9775 119.442C60.8759 120.284 60.2949 120.619 59.5541 120.212C59.4233 120.139 59.3217 119.863 59.3217 119.689C59.3798 118.948 59.4524 118.193 59.5686 117.467C59.5976 117.307 59.8591 117.06 60.0043 117.074C62.677 117.249 65.3497 117.452 68.0224 117.67C68.1676 117.684 68.4145 117.96 68.4145 118.12C68.4145 118.934 68.3419 119.762 68.2838 120.575C68.2548 121.127 67.8481 121.011 67.543 120.953C67.2089 120.895 66.686 121.054 66.7151 120.415C66.7441 120.008 66.7877 119.602 66.8313 119.079C66.1631 119.035 65.5676 119.006 64.8849 118.963C64.7106 121.258 64.5363 123.466 64.3474 125.702Z" fill="white"/>
<path d="M115.578 87.1376C115.332 87.7476 115.114 88.2996 114.91 88.8225C115.462 89.1421 116.043 89.3309 116.363 89.7231C116.508 89.9119 116.159 90.4929 116 91.0013C114.968 90.6091 114.01 90.246 112.949 89.8538C113.966 87.0504 114.968 84.2906 115.985 81.4727C117.002 81.8503 117.961 82.1989 118.992 82.5911C118.905 82.8816 118.818 83.1285 118.774 83.3755C118.672 83.971 118.367 84.0582 117.844 83.8548C116.871 83.4772 116.871 83.4772 116.494 84.4358C116.406 84.6828 116.348 84.9442 116.261 85.3074C118.353 86.0627 120.43 86.818 122.551 87.5878C122.739 87.1811 122.899 86.818 123.059 86.4839C123.146 86.4694 123.204 86.4403 123.233 86.4549C124.439 86.9342 124.453 86.9342 124.018 88.1543C123.684 89.1275 123.306 90.0862 122.928 91.103C122.623 91.0304 122.376 90.9868 122.129 90.9287C121.636 90.7979 121.432 90.4929 121.708 90.0281C121.912 89.694 121.926 89.4326 121.505 89.2873C119.573 88.561 117.627 87.8638 115.578 87.1376Z" fill="white"/>
<path d="M14.3366 55.1676C14.5254 54.5865 14.6852 53.991 14.8885 53.4245C15.1209 52.7709 15.2226 52.2189 14.4528 51.7831C13.8572 51.4491 13.3488 50.9407 12.7969 50.5194C12.7969 50.4323 12.8114 50.3597 12.8114 50.2725C13.5086 50.2725 14.2204 50.2289 14.9176 50.287C15.6003 50.3306 15.9779 50.1273 16.1522 49.43C16.3265 48.7473 16.6316 48.1082 17.0383 47.4546C17.3143 48.2099 17.6484 48.9507 17.8662 49.7351C17.997 50.1999 18.2148 50.287 18.6216 50.287C19.435 50.2725 20.2484 50.287 21.0618 50.287C21.0763 50.3597 21.0909 50.4468 21.1054 50.5194C20.4953 51.0133 19.9143 51.5362 19.2752 51.972C18.854 52.248 18.8249 52.5385 18.9266 52.9452C19.1445 53.7005 19.3478 54.4703 19.435 55.3419C18.8394 54.9497 18.2003 54.5865 17.6338 54.1363C17.1254 53.7296 16.7478 53.715 16.2394 54.1363C15.702 54.5865 15.0774 54.9352 14.4818 55.3128C14.4528 55.2547 14.3947 55.2111 14.3366 55.1676Z" fill="white"/>
<path d="M33.3939 31.2442C33.6699 31.0408 33.8877 30.8665 34.1056 30.7067C34.1928 30.7358 34.2509 30.7358 34.2799 30.7648C35.2095 31.6654 35.2095 31.6654 34.2799 32.566C33.7861 33.0308 33.2777 33.4811 32.8419 33.9894C32.4352 34.4688 32.1447 34.309 31.767 33.9749C31.3458 33.5973 31.3167 33.2777 31.738 32.9146C31.8106 32.8565 31.8687 32.7838 32.043 32.6241C30.4016 31.0989 28.7748 29.6028 27.1334 28.0631C26.3345 28.557 26.3345 28.557 25.5066 27.3514C26.3491 26.5525 27.1915 25.71 28.0921 24.9256C28.1938 24.8385 28.6295 25.0128 28.8329 25.1725C29.0944 25.3759 29.5011 25.6664 29.0798 26.0441C28.6441 26.4363 28.8329 26.6687 29.1525 26.9737C30.4597 28.2955 31.738 29.6318 33.0307 30.9536C33.1034 31.0408 33.2341 31.1134 33.3939 31.2442Z" fill="white"/>
<path d="M122.304 55.2981C121.679 54.8768 121.054 54.4556 120.444 54.0053C120.067 53.7293 119.747 53.6712 119.34 53.9908C118.745 54.4556 118.091 54.8478 117.467 55.269C117.409 55.2254 117.35 55.1964 117.292 55.1528C117.51 54.383 117.685 53.5986 117.946 52.8287C118.077 52.4656 118.019 52.2622 117.714 52.0444C117.031 51.5505 116.392 51.0276 115.724 50.5047C115.724 50.4175 115.738 50.3304 115.738 50.2577C116.435 50.2577 117.147 50.1996 117.83 50.2723C118.585 50.3594 118.905 50.0108 119.108 49.3572C119.297 48.7326 119.558 48.108 119.776 47.4979C119.849 47.4979 119.907 47.4979 119.98 47.4834C120.197 48.0935 120.444 48.7035 120.619 49.3281C120.808 50.0399 121.171 50.3449 121.94 50.2577C122.623 50.1851 123.306 50.2432 123.989 50.2432C124.003 50.3158 124.003 50.403 124.018 50.4756C123.379 50.984 122.783 51.536 122.1 51.9717C121.621 52.2622 121.635 52.5092 121.81 52.974C122.071 53.6857 122.246 54.4411 122.449 55.1673C122.42 55.2254 122.362 55.2545 122.304 55.2981Z" fill="white"/>
<path d="M59.9462 18.0259C60.6289 17.9097 61.0647 17.9532 61.1664 18.7521C61.2245 19.275 61.1664 19.4493 60.658 19.522C59.801 19.6527 58.944 19.798 58.1015 20.0158C57.5495 20.1611 57.2881 20.0594 57.1864 19.5075C57.0847 18.9991 56.954 18.5197 57.7238 18.4761C57.7819 18.4761 57.8546 18.418 58.0289 18.3309C57.6222 16.1957 57.2009 14.0314 56.7797 11.8235C56.4456 11.8526 56.1551 11.8671 55.7774 11.8962C55.6758 11.4459 55.5741 10.9956 55.4579 10.4872C56.7071 10.2403 57.8546 9.99333 59.0166 9.81902C59.1764 9.78997 59.4814 10.1531 59.5686 10.3855C59.6702 10.6905 59.8591 11.1554 59.3071 11.2716C58.7697 11.3732 58.7697 11.6637 58.8568 12.0995C59.22 14.0459 59.5686 15.9923 59.9462 18.0259Z" fill="white"/>
<path d="M56.402 126.167C55.2545 125.891 54.0779 125.63 52.9159 125.325C52.7997 125.296 52.669 125.034 52.6835 124.904C52.7852 123.974 52.9304 123.858 53.9762 123.916C54.4701 121.781 54.9785 119.646 55.4869 117.452C55.1528 117.336 54.8913 117.249 54.5863 117.147C54.6008 117.002 54.5863 116.857 54.6154 116.711C54.7316 115.695 54.7751 115.666 55.7919 115.927C56.5908 116.13 57.3897 116.276 58.1741 116.508C58.3629 116.566 58.6244 116.9 58.5953 117.06C58.5372 117.38 58.2467 117.961 58.145 117.946C57.3461 117.801 57.288 118.353 57.1573 118.876C56.7361 120.706 56.3293 122.536 55.9081 124.381C56.9539 124.976 56.9539 124.976 56.402 126.167Z" fill="white"/>
<path d="M83.4338 67.7899C83.8405 68.2257 84.2472 68.6469 84.6539 69.0972C85.9757 70.5062 86.6874 72.1475 86.6584 74.123C86.6439 75.9532 86.731 77.7979 86.9053 79.6136C86.9925 80.5287 87.4282 81.4002 87.6897 82.3008C87.7478 82.4751 87.8204 82.722 87.7478 82.8672C86.9053 84.3924 86.5567 86.0919 86.6874 87.7623C87.007 92.0618 83.7243 94.8216 80.8337 96.2306C77.3622 97.9301 73.6582 98.5111 69.8525 98.206C66.5843 97.9446 63.4178 97.1602 60.687 95.2138C60.0624 94.7635 59.6412 95.0105 59.1764 95.4172C57.8836 96.5647 56.4456 97.4507 54.7171 97.8429C53.1484 98.206 51.1148 97.5815 50.1997 96.2451C50.6936 95.8239 51.1874 95.4172 51.6668 94.9814C53.0176 93.7758 53.6567 92.2797 53.6422 90.4495C53.6132 84.5667 53.6132 78.6839 53.6277 72.8012C53.6277 71.1598 53.1338 69.6782 52.393 68.2402C52.2768 68.0078 52.2042 67.6011 52.3204 67.3832C53.3227 65.6256 53.6567 63.7519 53.6277 61.7474C53.5696 56.3003 53.5405 50.8533 53.6422 45.4063C53.6858 42.7482 52.4947 40.918 50.4031 39.4945C50.3304 39.4364 50.2578 39.3783 50.098 39.2766C50.9695 38.347 51.9282 37.7079 53.1919 37.5916C54.8478 37.4464 56.2713 38.0274 57.6076 38.9135C58.1741 39.2911 58.697 39.7124 59.22 40.1336C59.7429 40.5694 60.1786 40.5984 60.7742 40.1917C62.9094 38.7537 65.3061 37.9693 67.8335 37.5626C70.6805 37.0978 73.5274 37.1268 76.3454 37.7224C79.541 38.4051 82.4751 39.6252 84.7265 42.109C85.9466 43.4454 86.702 44.9996 86.6584 46.8879C86.6003 48.8779 86.8182 50.8388 87.7478 52.669C87.8204 52.8142 87.7914 53.0902 87.7042 53.2355C86.9344 54.6299 86.7891 56.1841 86.6729 57.7238C86.5858 58.8277 86.6003 59.9607 86.6729 61.0647C86.8472 63.563 85.7723 65.4949 84.0293 67.1508C83.855 67.3106 83.6807 67.4849 83.5064 67.6447C83.4628 67.6737 83.4628 67.7173 83.4338 67.7899ZM62.7932 81.5309C62.7932 82.9399 62.7932 84.3343 62.7932 85.7433C62.7932 86.9925 63.229 88.0964 63.9698 89.0841C66.6134 92.5702 72.2783 92.8898 75.4884 90.2752C77.5365 88.6048 78.4951 85.9176 77.4203 83.5064C77.1152 82.8092 77.2314 82.2717 77.4493 81.6326C77.6672 81.008 77.7689 80.3253 77.827 79.6571C77.8851 78.9164 77.8415 78.161 77.8415 77.4057C77.827 75.2124 76.7666 73.571 74.9945 72.4235C72.2202 70.6224 69.2715 70.5061 66.3374 72.0168C64.1005 73.1643 62.7787 74.98 62.7932 77.5945C62.7932 78.9164 62.7932 80.2236 62.7932 81.5309ZM62.7932 53.9908C62.7932 55.3998 62.7787 56.7942 62.7932 58.2032C62.8077 60.1496 63.7083 61.6892 65.2335 62.8222C67.819 64.7396 70.6805 64.972 73.6146 63.8535C75.4448 63.1563 76.8828 61.8926 77.5074 59.9462C78.0739 58.2032 78.0594 56.3584 77.6527 54.6444C77.3476 53.3807 77.3767 52.3494 77.6962 51.1148C78.3354 48.6455 77.1443 46.1616 74.8347 44.7817C72.1621 43.1839 69.3587 43.0096 66.5407 44.3895C64.2603 45.508 62.8368 47.2801 62.8077 49.9382C62.7787 51.2891 62.7932 52.6399 62.7932 53.9908Z" fill="white"/>
<path d="M64.42 81.5599C64.42 80.4269 64.4781 79.2794 64.4055 78.1464C64.2457 75.6916 65.4368 74.0793 67.6156 73.2078C70.1575 72.2055 72.5833 72.467 74.733 74.2972C75.6917 75.1251 76.2291 76.1564 76.1856 77.4637C76.171 78.0738 76.1565 78.6693 76.1856 79.2794C76.2437 80.3833 76.0113 81.371 75.2705 82.2426C75.1397 82.3878 75.1252 82.8236 75.2414 82.9543C76.9118 84.7845 76.418 87.8494 73.9922 89.36C71.4503 90.9578 67.7173 90.6528 65.6982 88.5902C64.8848 87.7622 64.42 86.8035 64.4345 85.627C64.4345 84.2761 64.42 82.9107 64.42 81.5599ZM72.6704 82.6638C72.6704 82.6348 72.6704 82.6057 72.6849 82.5912C72.8157 82.4169 72.9319 82.228 73.0917 82.0828C74.2682 80.9789 74.733 79.628 74.5006 78.0302C74.4861 77.9285 74.5297 77.8269 74.5006 77.7397C74.2537 77.1006 74.1375 76.3743 73.7308 75.8659C72.714 74.6022 70.448 74.1229 68.8793 74.6603C67.1508 75.2413 66.1195 76.0838 66.2212 78.3788C66.3374 80.7174 66.2647 83.0705 66.2357 85.4091C66.2212 86.6873 66.8893 87.5153 67.9497 88.0237C69.5329 88.7935 71.1598 88.779 72.7576 88.0091C74.5297 87.1667 74.9219 85.4236 73.7017 83.942C73.3386 83.5208 73.0045 83.085 72.6704 82.6638Z" fill="white"/>
<path d="M64.42 53.991C64.42 52.858 64.4782 51.7105 64.4055 50.5775C64.2312 47.9339 65.7128 46.3361 67.7754 45.5953C70.2883 44.6947 72.6559 44.9852 74.7621 46.7428C76.4906 48.1954 76.6795 51.0714 75.285 52.4513C74.9509 52.7854 74.9945 53.0759 75.2996 53.3809C75.9968 54.1072 76.2292 54.9932 76.2001 55.9664C76.1856 56.4748 76.1565 56.9832 76.2001 57.4916C76.389 59.99 75.0526 61.5297 72.9174 62.3867C70.39 63.4034 67.9788 63.0112 65.8726 61.2391C64.9139 60.4257 64.4055 59.3508 64.42 58.0581C64.4346 56.7072 64.42 55.3418 64.42 53.991ZM72.6559 52.9161C73.0481 52.4077 73.3677 51.8848 73.7889 51.4636C74.8928 50.3306 74.5442 49.125 73.6001 48.1518C72.3364 46.8445 69.8816 46.5395 68.0659 47.4255C67.0056 47.9484 66.2502 48.6892 66.2357 49.9529C66.2212 52.6837 66.2212 55.4145 66.2502 58.1452C66.2502 58.4648 66.3519 58.7989 66.4827 59.1039C67.2525 60.8324 70.2593 61.6894 72.3509 60.7017C73.4984 60.1643 74.3409 59.4089 74.4861 58.1017C74.6895 56.315 74.4716 54.6446 72.9755 53.3809C72.8593 53.2647 72.7867 53.0904 72.6559 52.9161Z" fill="white"/>
<path d="M68.4 2.81792C77.2605 2.81792 85.845 4.54644 93.9211 7.97443C101.736 11.2717 108.737 16.007 114.765 22.035C120.793 28.063 125.514 35.0788 128.826 42.8789C132.239 50.955 133.982 59.554 133.982 68.4C133.982 77.2459 132.239 85.845 128.826 93.9211C125.528 101.736 120.793 108.737 114.765 114.765C108.737 120.793 101.721 125.514 93.9211 128.826C85.845 132.239 77.2459 133.982 68.4 133.982C59.554 133.982 50.955 132.254 42.8789 128.826C35.0643 125.528 28.063 120.793 22.035 114.765C16.007 108.737 11.2862 101.721 7.97443 93.9211C4.56097 85.845 2.81792 77.2605 2.81792 68.4C2.81792 59.5395 4.54644 50.955 7.97443 42.8789C11.2717 35.0643 16.007 28.063 22.035 22.035C28.063 16.007 35.0788 11.2862 42.8789 7.97443C50.955 4.56097 59.554 2.81792 68.4 2.81792ZM68.4 0C30.6195 0 0 30.6195 0 68.4C0 106.181 30.6195 136.8 68.4 136.8C106.181 136.8 136.8 106.181 136.8 68.4C136.8 30.6195 106.181 0 68.4 0Z" fill="white"/>
</svg>
